<svg id="Слой_1" data-name="Слой 1" xmlns="http://www.w3.org/2000/svg" xmlns:xlink="http://www.w3.org/1999/xlink" viewBox="0 0 29.54 28.23"><defs><style>.cls-1{fill:none;}.cls-2{clip-path:url(#clip-path);}.cls-3{fill:#454545;}</style><clipPath id="clip-path" transform="translate(-92.11 -44.88)"><rect class="cls-1" x="92.16" y="44.5" width="29.5" height="29.25"/></clipPath></defs><title>search</title><g class="cls-2"><path class="cls-3" d="M121.49,72.21,112.9,64a10.59,10.59,0,0,0-.06-15.84,12.91,12.91,0,0,0-17.2.05A10.59,10.59,0,0,0,95.7,64,12.94,12.94,0,0,0,112,64.7L120.66,73a.6.6,0,0,0,.42.16.56.56,0,0,0,.58-.53.51.51,0,0,0-.16-.37Zm-17.19-6c-6.07,0-11-4.53-11-10.12S98.23,46,104.3,46s11,4.53,11,10.12S110.37,66.21,104.3,66.22Z" transform="translate(-92.11 -44.88)"/></g></svg>